{"title":"Interstellar 2014 720p HDCAM ENG x264 AAC x264 Pimp4003","uid":11423600,"size":3184658870,"categoryP":"video","categoryS":"movies","magnet":"?xt=urn:btih:7f4ede5bbf97a476e880d964c1e451a88a49d754&amp;dn=Interstellar+2014+720p+HDCAM+ENG+x264+AAC+x264+Pimp4003&amp;tr=udp%3A%2F%2Ftracker.openbittorrent.com%3A80&amp;tr=udp%3A%2F%2Fopen.demonii.com%3A1337&amp;tr=udp%3A%2F%2Ftracker.coppersurfer.tk%3A6969&amp;tr=udp%3A%2F%2Fexodus.desync.com%3A6969","seeders":18,"leechers":0,"uploader":"shawnmurthy","files":-1,"time":1415640358,"description":"Interstellar 2014 720p HDCAM ENG x264 AAC x264 Pimp4003\n\nENJOY\n\nPIMP4003\n\nVideo\nID                                       : 1\nFormat                                   : MPEG-4 Visual\nFormat profile                           : Simple@L3\nFormat settings, BVOP                    : No\nFormat settings, QPel                    : No\nFormat settings, GMC                     : No warppoints\nFormat settings, Matrix                  : Default (H.263)\nCodec ID                                 : 20\nDuration                                 : 2h 43mn\nBit rate                                 : 2 389 Kbps\nWidth                                    : 1 280 pixels\nHeight                                   : 536 pixels\nDisplay aspect ratio                     : 2.40:1\nFrame rate mode                          : Variable\nFrame rate                               : 59.940 fps\nMinimum frame rate                       : 59.916 fps\nMaximum frame rate                       : 60.157 fps\nColor space                              : YUV\nChroma subsampling                       : 4:2:0\nBit depth                                : 8 bits\nScan type                                : Progressive\nCompression mode                         : Lossy\nBits/(Pixel*Frame)                       : 0.058\nStream size                              : 2.73 GiB (92%)\nWriting library                          : ZJMedia MPEG Encoder\n\nAudio\nID                                       : 2\nFormat                                   : AAC\nFormat/Info                              : Advanced Audio Codec\nFormat profile                           : LC\nCodec ID                                 : 40\nDuration                                 : 2h 43mn\nBit rate mode                            : Variable\nBit rate                                 : 199 Kbps\nChannel(s)                               : 2 channels\nChannel positions                        : Front: L R\nSampling rate                            : 48.0 KHz\nCompression mode                         : Lossy\nStream size                              : 233 MiB (8%)","torrent":{"xt":"urn:btih:7f4ede5bbf97a476e880d964c1e451a88a49d754","amp;dn":"Interstellar+2014+720p+HDCAM+ENG+x264+AAC+x264+Pimp4003","amp;tr":["udp%3A%2F%2Ftracker.openbittorrent.com%3A80","udp%3A%2F%2Fopen.demonii.com%3A1337","udp%3A%2F%2Ftracker.coppersurfer.tk%3A6969","udp%3A%2F%2Fexodus.desync.com%3A6969"],"infoHash":"7f4ede5bbf97a476e880d964c1e451a88a49d754","infoHashBuffer":{"type":"Buffer","data":[127,78,222,91,191,151,164,118,232,128,217,100,193,228,81,168,138,73,215,84]},"announce":[],"urlList":[]}}